<svg width="620" height="654" viewBox="0 0 620 654" fill="none" xmlns="http://www.w3.org/2000/svg">
<mask id="mask0_2842_1123" style="mask-type:luminance" maskUnits="userSpaceOnUse" x="0" y="0" width="620" height="654">
<path d="M619.361 0H0V653.382H619.361V0Z" fill="white"></path>
</mask>
<g mask="url(#mask0_2842_1123)">
<path fill-rule="evenodd" clip-rule="evenodd" d="M119.342 479.755C91.3726 473.395 65.5185 459.271 44.915 438.671C16.176 409.929 0.0253906 370.941 0.0253906 330.289L0.0253906 153.529C0.0253906 112.886 16.176 73.8978 44.915 45.1561C73.6634 16.4053 112.644 0.257812 153.294 0.257812L346.935 0.257812C387.586 0.257812 426.566 16.4053 455.314 45.1561C481.827 71.6669 497.626 106.895 499.917 144.101H423.161C421.074 127.207 413.412 111.384 401.241 99.2211C386.843 84.8188 367.307 76.7226 346.935 76.7226L153.294 76.7226C132.923 76.7226 113.386 84.8188 98.9888 99.2211C84.5821 113.623 76.493 133.163 76.493 153.529L76.493 330.289C76.493 350.664 84.5821 370.194 98.9888 384.597C104.972 390.588 111.856 395.491 119.314 399.17C129.787 404.334 141.401 407.095 153.294 407.095H346.935C367.307 407.095 386.843 399.008 401.241 384.597C414.321 371.526 422.188 354.227 423.533 335.911L500.102 335.911C498.683 374.521 482.727 411.251 455.314 438.671C426.566 467.412 387.586 483.56 346.935 483.56H153.294C141.782 483.56 130.39 482.265 119.342 479.755Z" fill="black"></path>
<path fill-rule="evenodd" clip-rule="evenodd" d="M466.22 170.339C477.733 170.339 489.124 171.635 500.173 174.154C528.142 180.505 553.996 194.637 574.599 215.238C602.012 242.648 617.968 279.387 619.387 317.997H542.818C541.473 299.682 533.606 282.374 520.526 269.303C514.543 263.311 507.659 258.418 500.21 254.738C489.737 249.566 478.122 246.804 466.22 246.804L272.579 246.804C252.208 246.804 232.671 254.9 218.274 269.303C203.867 283.705 195.778 303.244 195.778 323.611L195.778 383.514H149.163C132.678 383.514 119.311 370.146 119.311 353.657C119.311 338.652 119.311 323.611 119.311 323.611C119.311 282.967 135.461 243.979 164.2 215.238C192.949 186.487 231.929 170.339 272.579 170.339L466.22 170.339Z" fill="black"></path>
<path fill-rule="evenodd" clip-rule="evenodd" d="M619.204 509.798C616.912 547.013 601.114 582.241 574.601 608.752C545.853 637.494 506.872 653.641 466.222 653.641H272.581C231.93 653.641 192.95 637.494 164.202 608.752C136.158 580.703 120.11 542.911 119.34 503.339C130.398 505.848 141.78 507.144 153.302 507.144H196.076C197.663 525.037 205.474 541.886 218.275 554.678C232.673 569.089 252.209 577.176 272.581 577.176L466.222 577.176C486.594 577.176 506.13 569.089 520.528 554.678C532.699 542.515 540.361 526.692 542.448 509.798V497.437L619.204 494.963V509.798Z" fill="black"></path>
</g>
</svg>
