<svg id="Layer_1" viewBox="0 0 24 24" xmlns="http://www.w3.org/2000/svg"><path d="m8 6c-1.25 2.5-2.5002441 3.75-5 5 2.5 1.25 3.75 2.5 5 5 1.25-2.5 2.5-3.75 5-5-2.5-1.25-3.75-2.5-5-5zm0 7.9761963c-.8120728-1.243103-1.7331543-2.1641235-2.9762573-2.9762573 1.243103-.8121338 2.1641845-1.7330933 2.9762573-2.9761353.8120728 1.243042 1.7330933 2.1641235 2.9761963 2.9761963-1.243103.8120728-2.1641235 1.7330933-2.9761963 2.9761963z"></path><path d="m17 3c-1 2-2.0001831 3-4 4 2 1 3 2 4 4 1-2 2-3 4-4-2-1-3-2-4-4zm0 6.0222778c-.5679321-.81427-1.2080078-1.4544067-2.0223389-2.0222778.8143311-.5679321 1.4544678-1.2080078 2.0223389-2.0223389.5679321.8143311 1.2080078 1.4544068 2.0222778 2.0223389-.81427.5678711-1.4543457 1.2079468-2.0222778 2.0222778z"></path><path d="m14 15c-.75 1.5-1.5001221 2.25-3 3 1.5.75 2.25 1.5 3 3 .75-1.5 1.5-2.25 3-3-1.5-.75-2.25-1.5-3-3zm0 4.0925903c-.3217773-.4158325-.6768188-.770813-1.0925903-1.0925903.4157104-.3217773.770874-.6768799 1.0925903-1.0925903.3217773.4157715.6767578.770813 1.0925903 1.0925903-.4158325.3217773-.770813.6767578-1.0925903 1.0925903z"></path><path d="m6 19c-.25.5-.500061.75-1 1 .5.25.75.5 1 1 .25-.5.5-.75 1-1-.5-.25-.75-.5-1-1z"></path><path d="m11 5c.25-.5.5-.75 1-1-.5-.25-.75-.5-1-1-.25.5-.500061.75-1 1 .5.25.75.5 1 1z"></path><path d="m20 12c-.25.5-.500061.75-1 1 .5.25.75.5 1 1 .25-.5.5-.75 1-1-.5-.25-.75-.5-1-1z"></path></svg>