<svg id="Capa_1" height="512" viewBox="0 0 512 512" width="512" xmlns="http://www.w3.org/2000/svg"><path d="m473.349 0h-166.349c-8.284 0-15 6.716-15 15v68.958c0 5.916 3.478 11.28 8.879 13.694 5.401 2.415 11.717 1.429 16.126-2.519 3.981-3.563 9.122-5.416 14.491-5.2 10.6.419 19.217 9.051 19.617 19.651.213 5.635-1.814 10.965-5.708 15.009-3.897 4.048-9.137 6.277-14.756 6.277-5.04.001-9.887-1.852-13.645-5.217-4.407-3.944-10.724-4.934-16.126-2.518-5.401 2.414-8.879 7.778-8.879 13.694v68.171c0 8.284 6.716 15 15 15h44.866c-.603 3.49-.841 7.066-.697 10.683 1.034 26.156 22.336 47.421 48.495 48.409.66.025 1.317.037 1.975.037 13.124 0 25.479-4.97 34.976-14.113 9.976-9.605 15.469-22.52 15.469-36.364 0-2.92-.252-5.813-.745-8.651h45.662c8.284 0 15-6.716 15-15v-166.35c0-21.312-17.339-38.651-38.651-38.651zm8.651 190h-53.958c-5.917 0-11.28 3.478-13.694 8.88-2.414 5.401-1.428 11.718 2.519 16.126 3.364 3.757 5.217 8.604 5.217 13.646 0 5.616-2.229 10.856-6.277 14.754-4.043 3.894-9.354 5.912-15.009 5.708-10.601-.4-19.232-9.018-19.651-19.616-.212-5.363 1.635-10.51 5.199-14.492 3.946-4.408 4.933-10.725 2.519-16.126s-7.78-8.88-13.696-8.88h-53.169v-29.873c2.837.492 5.728.744 8.646.744h.006c13.845 0 26.76-5.493 36.364-15.469 9.602-9.971 14.601-23.094 14.076-36.95-.988-26.159-22.253-47.461-48.411-48.495-3.621-.146-7.193.096-10.681.698v-30.655h151.349c4.771 0 8.651 3.881 8.651 8.651z"></path><path d="m395 292h-68.958c-5.917 0-11.28 3.478-13.694 8.88-2.414 5.401-1.428 11.718 2.519 16.126 3.364 3.757 5.217 8.604 5.217 13.646 0 5.616-2.229 10.856-6.277 14.754-4.044 3.894-9.348 5.907-15.009 5.708-10.601-.4-19.232-9.018-19.651-19.617-.212-5.362 1.635-10.509 5.199-14.491 3.946-4.408 4.933-10.725 2.519-16.126s-7.78-8.88-13.696-8.88h-53.169v-29.866c3.49.602 7.067.842 10.682.697 26.157-1.034 47.422-22.336 48.41-48.495.524-13.856-4.475-26.979-14.076-36.95-9.605-9.976-22.52-15.469-36.364-15.469-2.92 0-5.813.252-8.651.745v-45.662c0-8.284-6.716-15-15-15h-166.35c-21.312 0-38.651 17.339-38.651 38.651v332.697c0 21.313 17.339 38.652 38.651 38.652h332.697c21.313 0 38.652-17.339 38.652-38.651v-166.349c0-8.284-6.716-15-15-15zm-365-151.349c0-4.771 3.881-8.651 8.651-8.651h151.349v53.958c0 5.917 3.478 11.28 8.88 13.694 5.4 2.416 11.719 1.428 16.126-2.519 3.757-3.364 8.604-5.217 13.646-5.217 5.616 0 10.856 2.229 14.754 6.277 3.894 4.044 5.921 9.374 5.708 15.009-.4 10.6-9.018 19.232-19.617 19.651-5.361.211-10.509-1.635-14.491-5.199-4.408-3.945-10.723-4.934-16.126-2.519-5.401 2.414-8.879 7.778-8.879 13.694v53.171h-29.873c.492-2.838.744-5.731.744-8.651 0-13.845-5.493-26.76-15.469-36.364-9.971-9.602-23.102-14.618-36.95-14.076-26.159.988-47.461 22.253-48.495 48.41-.143 3.615.096 7.192.697 10.682h-30.655zm0 332.698v-151.349h53.958c5.917 0 11.28-3.478 13.694-8.88 2.414-5.401 1.428-11.718-2.52-16.126-3.564-3.981-5.411-9.128-5.199-14.49.419-10.6 9.051-19.217 19.651-19.617 5.622-.193 10.964 1.813 15.009 5.708 4.048 3.897 6.277 9.137 6.277 14.754 0 5.043-1.853 9.889-5.217 13.646-3.945 4.408-4.932 10.725-2.518 16.126s7.78 8.879 13.696 8.879h53.169v29.866c-3.49-.602-7.067-.841-10.682-.697-26.157 1.034-47.422 22.336-48.41 48.495-.524 13.856 4.475 26.979 14.076 36.95 9.605 9.976 22.52 15.469 36.364 15.469 2.92 0 5.813-.252 8.651-.745v30.662h-151.348c-4.77 0-8.651-3.881-8.651-8.651zm350 0c0 4.771-3.881 8.651-8.651 8.651h-151.349v-53.958c0-5.917-3.478-11.28-8.88-13.694-5.4-2.415-11.718-1.427-16.126 2.519-3.757 3.364-8.604 5.217-13.646 5.217-5.616 0-10.856-2.229-14.754-6.277-3.894-4.044-5.921-9.374-5.708-15.009.4-10.6 9.018-19.232 19.617-19.651 5.349-.212 10.508 1.635 14.491 5.199 4.408 3.946 10.723 4.935 16.126 2.519 5.401-2.414 8.879-7.778 8.879-13.694v-53.171h29.866c-.602 3.489-.84 7.066-.697 10.682 1.034 26.157 22.336 47.422 48.495 48.41 13.85.538 26.979-4.475 36.95-14.076 9.976-9.605 15.469-22.52 15.469-36.364 0-2.92-.252-5.813-.745-8.651h30.663z"></path></svg>