<svg height="512" viewBox="0 0 24 24" width="512" xmlns="http://www.w3.org/2000/svg"><g id="Layer_2" data-name="Layer 2"><path d="m12 22.749a2.923 2.923 0 0 1 -2.072-.857l-1.091-1.092a1.421 1.421 0 0 0 -1.011-.419h-1.278a2.933 2.933 0 0 1 -2.93-2.93v-1.277a1.421 1.421 0 0 0 -.418-1.011l-1.092-1.091a2.934 2.934 0 0 1 0-4.144l1.092-1.091a1.421 1.421 0 0 0 .419-1.011v-1.278a2.933 2.933 0 0 1 2.93-2.93h1.277a1.421 1.421 0 0 0 1.011-.418l1.091-1.092a2.934 2.934 0 0 1 4.144 0l1.091 1.092a1.421 1.421 0 0 0 1.011.419h1.278a2.933 2.933 0 0 1 2.93 2.93v1.277a1.421 1.421 0 0 0 .418 1.011l1.091 1.091a2.934 2.934 0 0 1 0 4.144l-1.091 1.091a1.421 1.421 0 0 0 -.419 1.011v1.278a2.933 2.933 0 0 1 -2.93 2.93h-1.277a1.421 1.421 0 0 0 -1.011.419l-1.091 1.091a2.923 2.923 0 0 1 -2.072.857zm-5.452-17.631a1.431 1.431 0 0 0 -1.43 1.43v1.278a2.908 2.908 0 0 1 -.859 2.074l-1.09 1.09a1.433 1.433 0 0 0 0 2.024l1.09 1.09a2.908 2.908 0 0 1 .859 2.072v1.278a1.431 1.431 0 0 0 1.43 1.43h1.278a2.912 2.912 0 0 1 2.072.859l1.09 1.09a1.433 1.433 0 0 0 2.024 0l1.09-1.09a2.912 2.912 0 0 1 2.072-.859h1.278a1.431 1.431 0 0 0 1.43-1.43v-1.28a2.908 2.908 0 0 1 .859-2.072l1.09-1.09a1.433 1.433 0 0 0 0-2.024l-1.09-1.088a2.912 2.912 0 0 1 -.859-2.072v-1.28a1.431 1.431 0 0 0 -1.43-1.43h-1.278a2.908 2.908 0 0 1 -2.074-.859l-1.09-1.09a1.433 1.433 0 0 0 -2.024 0l-1.086 1.09a2.908 2.908 0 0 1 -2.072.859z"></path><path d="m11 14.75a.744.744 0 0 1 -.53-.22l-2-2a.75.75 0 0 1 1.06-1.06l1.47 1.469 3.47-3.469a.75.75 0 0 1 1.06 1.06l-4 4a.744.744 0 0 1 -.53.22z"></path></g></svg>