<svg width="806" height="826" viewBox="0 0 806 826" fill="none" xmlns="http://www.w3.org/2000/svg">
<mask id="mask0_2599_189" style="mask-type:luminance" maskUnits="userSpaceOnUse" x="-1" y="0" width="807" height="826">
<path d="M805.022 211.174L222.773 0.000976562L0 614.232L582.249 825.406L805.022 211.174Z" fill="white"></path>
</mask>
<g mask="url(#mask0_2599_189)">
<path fill-rule="evenodd" clip-rule="evenodd" d="M171.389 491.698C147.265 476.183 127.775 454.091 115.43 427.7C98.2124 390.881 96.3227 348.723 110.183 310.506L170.45 144.338C184.307 106.13 212.783 74.9851 249.6 57.7642C286.428 40.5381 328.579 38.6486 366.793 52.5085L548.832 118.531C587.046 132.391 618.185 160.861 635.408 197.691C651.293 231.653 654.134 270.157 643.603 305.915L571.446 279.745C575.244 263.152 573.436 245.664 566.141 230.08C557.517 211.632 541.911 197.36 522.761 190.414L340.722 124.391C321.571 117.446 300.445 118.396 282 127.026C263.546 135.654 249.28 151.264 242.336 170.41L182.069 336.578C175.122 355.733 176.067 376.851 184.7 395.302C188.282 402.974 193.082 409.931 198.839 415.932C206.924 424.357 216.901 430.913 228.081 434.968L410.119 500.991C429.27 507.937 450.393 506.995 468.842 498.356C485.594 490.528 498.888 476.948 506.397 460.188L578.378 486.295C563.88 522.108 536.357 551.197 501.238 567.627C464.413 584.844 422.263 586.734 384.048 572.874L202.01 506.851C191.187 502.926 180.92 497.824 171.389 491.698Z" fill="#9E9E9E" fill-opacity="0.19"></path>
<path fill-rule="evenodd" clip-rule="evenodd" d="M602.98 319.092C613.802 323.017 624.07 328.119 633.597 334.254C657.725 349.761 677.212 371.861 689.557 398.252C705.981 433.367 708.455 473.345 696.625 510.125L624.643 484.019C629.624 466.342 628.129 447.389 620.29 430.641C616.707 422.969 611.905 416.022 606.157 410.023C598.075 401.589 588.098 395.033 576.909 390.975L394.871 324.953C375.72 318.007 354.594 318.957 336.148 327.587C317.695 336.215 303.428 351.825 296.484 370.971L276.06 427.285L232.238 411.391C216.741 405.771 208.732 388.646 214.354 373.145C219.47 359.039 224.598 344.899 224.598 344.899C238.456 306.691 266.932 275.546 303.748 258.325C340.577 241.099 382.727 239.21 420.942 253.07L602.98 319.092Z" fill="#9E9E9E" fill-opacity="0.19"></path>
<path fill-rule="evenodd" clip-rule="evenodd" d="M631.057 690.371C616.214 724.575 589.351 752.306 555.388 768.188C518.563 785.406 476.412 787.296 438.198 773.436L256.16 707.413C217.945 693.553 186.806 665.083 169.58 628.261C152.78 592.331 150.578 551.333 163.347 513.868C172.886 519.998 183.145 525.097 193.977 529.025L234.188 543.609C229.579 560.971 231.177 579.473 238.85 595.864C247.471 614.321 263.08 628.584 282.231 635.53L464.269 701.553C483.42 708.498 504.543 707.557 522.991 698.918C538.58 691.634 551.178 679.371 558.901 664.201L563.115 652.581L636.115 676.425L631.057 690.371Z" fill="#9E9E9E" fill-opacity="0.19"></path>
</g>
</svg>
