<svg width="788" height="810" viewBox="0 0 788 810" fill="none" xmlns="http://www.w3.org/2000/svg">
<mask id="mask0_2599_189" style="mask-type:luminance" maskUnits="userSpaceOnUse" x="0" y="0" width="788" height="810">
<path d="M590.483 0L0 186.915L197.183 809.834L787.666 622.918L590.483 0Z" fill="white"></path>
</mask>
<g mask="url(#mask0_2599_189)">
<path fill-rule="evenodd" clip-rule="evenodd" d="M258.561 608.286C229.977 610.663 201.066 605 175.206 591.578C139.133 572.85 111.969 540.553 99.7008 501.797L46.3569 333.278C34.0913 294.53 37.7228 252.486 56.448 216.411C75.1793 180.325 107.469 153.167 146.224 140.899L330.837 82.4603C369.592 70.1926 411.628 73.8234 447.712 92.5578C480.99 109.831 506.683 138.649 520.096 173.429L446.919 196.593C439.831 181.117 427.75 168.343 412.476 160.421C394.404 151.035 373.335 149.212 353.913 155.36L169.3 213.798C149.879 219.946 133.696 233.561 124.317 251.637C114.928 269.715 113.113 290.784 119.259 310.202L172.603 478.72C178.752 498.145 192.358 514.323 210.439 523.706C217.952 527.613 225.994 530.21 234.215 531.467C245.758 533.229 257.664 532.357 269.003 528.767L453.615 470.329C473.037 464.181 489.222 450.575 498.599 432.491C507.125 416.082 509.404 397.215 505.159 379.348L578.158 356.24C588.457 393.478 584.33 433.311 566.47 467.725C547.736 503.802 515.446 530.961 476.691 543.229L292.079 601.667C281.103 605.141 269.852 607.344 258.561 608.286Z" fill="#9E9E9E" fill-opacity="0.19"></path>
<path fill-rule="evenodd" clip-rule="evenodd" d="M495.89 208.613C506.865 205.139 518.116 202.936 529.41 202.003C557.992 199.617 586.905 205.288 612.765 218.711C647.172 236.57 673.471 266.781 686.476 303.163L613.477 326.27C606.667 309.215 593.944 295.088 577.529 286.574C570.017 282.667 561.977 280.079 553.765 278.82C542.219 277.049 530.313 277.921 518.966 281.513L334.353 339.951C314.931 346.099 298.749 359.714 289.369 377.789C279.981 395.868 278.166 416.937 284.312 436.354L302.39 493.465L257.948 507.533C242.232 512.508 225.454 503.797 220.477 488.077C215.949 473.771 211.41 459.431 211.41 459.431C199.144 420.683 202.775 378.639 221.501 342.564C240.232 306.478 272.522 279.319 311.277 267.052L495.89 208.613Z" fill="#9E9E9E" fill-opacity="0.19"></path>
<path fill-rule="evenodd" clip-rule="evenodd" d="M744.183 486.076C753.23 522.248 748.799 560.601 731.523 593.877C712.789 629.954 680.499 657.113 641.744 669.38L457.132 727.819C418.377 740.087 376.341 736.456 340.259 717.73C305.058 699.452 278.353 668.266 265.676 630.77C276.976 629.826 288.218 627.626 299.203 624.149L339.983 611.24C346.895 627.82 359.427 641.526 375.492 649.858C393.568 659.253 414.634 661.067 434.055 654.919L618.668 596.481C638.09 590.333 654.275 576.727 663.652 558.642C671.585 543.374 674.115 525.976 671.006 509.239L667.276 497.455L739.706 471.933L744.183 486.076Z" fill="#9E9E9E" fill-opacity="0.19"></path>
</g>
</svg>
