<svg id="Ebene_1" data-name="Ebene 1" xmlns="http://www.w3.org/2000/svg" viewBox="0 0 2362.14125 600"><defs><style>.cls-1{fill:#005dff;}.cls-2{fill:#fff;}</style></defs><g id="B1LOGO"><path id="B1WAPPEN" class="cls-1" d="M450.78247,196.34166l-64.90758,27.38325-29.575,12.55415v51.253l1.05525-.44512,49.633-20.93977-.20379,53.47233c-.64308,13.64943-4.86445,24.71222-12.20726,31.99293A141.34025,141.34025,0,0,1,378.626,365.292a99.093,99.093,0,0,1-22.3262,12.55594,101.20392,101.20392,0,0,1-24.21556-13.737,117.1,117.1,0,0,1-13.74813-12.06084c-7.85851-8.20717-11.99237-18.81148-12.63545-32.41473l-.24832-103.1053-.00475-1.78756-1.64431-.69717-41.924-17.796-3.77408-1.60133.00956,4.0988.29442,121.49817v.05254l.01756.82138.00156.027.00163.02549c1.06007,25.45875,9.7241,46.85374,25.74842,63.588,8.75474,9.14156,32.6647,31.41358,65.51561,40.754l.00956.00163.00956.00319,5.88636,1.62838.74179.20534.7386-.21654,5.56-1.62519c29.99055-8.53026,53.74452-28.91921,65.23713-40.31474,16.04345-15.90813,25.09578-38.04647,26.17823-64.0241l.01749-.39639.00155-.05091v-.05091l.46487-121.82771.01585-4.09562Z"></path><g id="BackupONE"><path id="B" class="cls-2" d="M702.28605,344.3413c0,26.334-20.32813,44.12109-56.13379,44.12109H562.29777v-157.082h78.0791c34.41992,0,54.97852,16.63184,54.97852,42.043,0,13.62891-7.62305,29.56836-21.4834,34.88086C692.35246,312.23193,702.28605,328.1704,702.28605,344.3413Zm-93.55664-76.69336v26.7959H631.83c11.78125,0,18.48047-6.00586,18.48047-14.09082,0-8.77832-6.46875-12.70508-18.48047-12.70508Zm48.04883,70.22461c0-8.31543-6.00586-12.70508-19.17285-12.70508h-28.876V351.7329h28.41406C650.77238,351.7329,656.77824,346.41943,656.77824,337.87255Z"></path><path id="A" class="cls-2" d="M820.55753,366.05517h-60.292l-8.085,22.40722h-49.666l65.14355-157.082H813.165l65.14257,157.082H828.873Zm-13.62988-37.42285-16.63183-45.04493-16.40137,45.04493Z"></path><path id="C" class="cls-2" d="M991.26554,320.7788h47.81738c-2.77148,41.81152-34.88085,70.918-80.62011,70.918-49.665,0-84.77735-34.65039-84.77735-81.77539,0-47.124,35.11231-81.77539,84.77735-81.77539,45.73926,0,77.84863,29.10644,80.62011,70.918H991.26554c-3.00293-16.40039-14.78418-27.48926-33.49512-27.48926-22.63867,0-36.72949,16.86328-36.72949,38.34668s14.09082,38.34668,36.72949,38.34668C976.48136,348.26806,988.26261,337.18017,991.26554,320.7788Z"></path><path id="K" class="cls-2" d="M1125.4755,335.79345l-20.55957,24.02441v28.64453h-46.43164v-157.082h46.43164v64.91211l54.74805-64.91211h54.74707l-58.21191,68.377,61.9082,88.70507h-57.05762Z"></path><path id="U" class="cls-2" d="M1375.18937,312.46239c0,51.51368-28.18262,79.23438-75.76953,79.23438-47.58594,0-75.76856-27.7207-75.76856-79.23438v-81.082h47.124v82.69922c0,21.4834,10.85742,34.18848,28.64453,34.18848s28.64453-12.70508,28.64453-34.18848V231.38036h47.125Z"></path><path id="P" class="cls-2" d="M1532.72941,291.21044c0,38.34668-26.7959,60.98438-72.30371,60.98438h-18.01856v36.26757H1395.9755v-157.082h66.06739C1506.39542,231.38036,1532.72941,253.55712,1532.72941,291.21044Zm-47.124,0c0-12.70508-9.00977-20.32812-24.02442-20.32812h-19.17383v41.81152H1461.581C1476.59562,312.69384,1485.60539,304.6079,1485.60539,291.21044Z"></path><path id="O" class="cls-2" d="M1761.87638,309.92138c0,46.43164-35.11181,81.77539-84.77783,81.77539-49.665,0-84.77734-35.34375-84.77734-81.77539s35.1123-81.77539,84.77734-81.77539C1726.76457,228.146,1761.87638,263.48974,1761.87638,309.92138Zm-47.355,0c0-20.55957-15.47754-38.34668-37.42285-38.34668s-37.42188,17.78711-37.42188,38.34668,15.47657,38.34668,37.42188,38.34668S1714.5214,330.481,1714.5214,309.92138Z"></path><path id="N" class="cls-2" d="M1924.95841,231.38036v157.082h-36.26562l-65.60547-74.15234v74.15234h-46.43164v-157.082h36.26758l65.373,75.53809V231.38036Z"></path><path id="E" class="cls-2" d="M1994.48576,270.4204v21.02051h64.68164v37.42285h-64.68164v20.55957h75.53906v39.03906h-121.9707v-157.082h121.9707v39.04Z"></path></g></g></svg>